<svg width="256" height="144" viewBox="0 0 256 144" fill="none" xmlns="http://www.w3.org/2000/svg">
<path d="M15.9485 58.7571C42.5031 75.0026 55.3185 92.5631 55.3185 105.226" stroke="#1B3848" stroke-width="5" stroke-linecap="round"/>
<path d="M60.2828 68.7906C17.5648 62.5795 28.187 26.0247 28.187 26.0247C18.4886 30.0869 3.79002 37.0148 3.01641 60.3086C1.97794 91.6065 50.5845 106.3 44.465 123.501" stroke="#1B3848" stroke-width="5" stroke-linecap="round"/>
<path d="M27.8401 140.942C27.8401 143.432 60.976 115.499 61.5526 77.1513C61.5526 70.7013 61.5526 55.171 41.9249 34.504C36.844 29.6063 20.335 18.8584 32.8031 5.24144C43.7709 -2.64569 51.0451 12.527 43.7709 16.2283" stroke="#1B3848" stroke-width="5" stroke-linecap="round"/>
<path d="M14.563 105.465C25.1852 115.38 28.9951 134.971 27.9566 140.226" stroke="#1B3848" stroke-width="5" stroke-linecap="round"/>
<path d="M201.869 63.553C203.288 65.1836 204.547 67.4786 203.208 69.6758C202.078 71.5311 199.059 72.8461 197.13 73.7324C191.153 76.4796 187.337 76.9331 182.602 79.0958C177.868 81.2585 172.815 83.7534 171.919 89.8941C171.737 91.1388 171.872 92.6261 172.146 93.8542C172.515 95.5083 173.192 96.7089 174.398 97.8488C179.252 102.436 185.95 102.333 192.082 98.1466C188.939 98.8799 184.335 97.0383 183.937 88.881C183.583 81.6086 187.91 77.8938 192.803 76.1667C192.778 79.8566 192.653 93.0148 192.674 93.8046C192.855 100.397 200.17 105.474 210.914 96.1438C208.841 96.1093 207.38 95.5717 205.779 93.1733C203.158 89.249 204.283 80.9276 204.909 69.6758C205.059 67.0017 201.87 63.553 201.87 63.553" fill="#1B3848"/>
<path d="M185.592 68.0148C186.516 69.2319 187.972 73.079 184.434 76.1005C182.446 77.7973 178.562 78.8876 175.779 75.5505C173.108 72.3457 174.675 68.6489 175.083 67.7005C177.695 61.6494 187.91 59.5363 187.361 59.7899C181.072 62.1663 183.519 65.2828 185.592 68.0148Z" fill="#1B3848"/>
<path d="M168.956 97.3426C168.956 97.3426 162.76 99.9505 162.507 89.9254L162.613 72.4873C162.613 72.4873 163.49 59.4767 154.731 60.4401C139.221 62.1452 136.568 84.6351 136.568 84.6351C141.101 66.5768 152.009 53.9534 151.945 72.8016C151.861 97.6003 151.8 101.25 156.878 101.323C162.213 101.402 168.956 97.3426 168.956 97.3426Z" fill="#1B3848"/>
<path d="M145.329 101.297C145.329 101.297 140.415 101.26 140.408 97.3468V72.4502C140.408 72.4502 141.389 59.4753 132.631 60.4388C117.121 62.1439 114.469 84.6338 114.469 84.6338C119.001 66.5754 129.946 53.9521 129.846 72.8003C129.814 78.7632 129.833 97.3826 129.833 97.3826C129.862 101.296 126.533 101.296 126.533 101.296H145.329V101.297Z" fill="#1B3848"/>
<path d="M118.355 97.8099C118.296 101.297 121.321 101.297 121.321 101.297H104.502C104.502 101.297 107.567 101.297 107.54 97.8099C107.54 97.8099 107.534 73.9044 107.54 66.8428C107.545 60.884 102.725 63.1363 102.725 63.1363C102.725 63.1363 107.519 58.5614 118.354 61.2176V97.8099H118.355Z" fill="#1B3848"/>
<path d="M102.696 96.3434C90.6187 106.341 83.3128 98.6578 84.0413 94.6218V66.1428C83.5678 61.0661 79.229 63.102 79.229 63.102C79.229 63.102 87.2812 57.6078 94.7269 61.7733V93.2917C94.6455 99.4917 102.698 96.3448 102.698 96.3448L102.696 96.3434Z" fill="#1B3848"/>
<path d="M89.7141 57.0965C93.5872 57.0965 96.727 53.9066 96.727 49.9716C96.727 46.0366 93.5872 42.8467 89.7141 42.8467C85.841 42.8467 82.7012 46.0366 82.7012 49.9716C82.7012 53.9066 85.841 57.0965 89.7141 57.0965Z" fill="#1B3848"/>
<path d="M233.83 94.2233C221.752 108.459 214.446 97.5191 215.175 91.7712V51.216C214.701 43.9864 210.363 46.8851 210.363 46.8851C210.363 46.8851 218.415 39.0613 225.86 44.994V89.8759C225.779 98.7045 233.831 94.2233 233.831 94.2233H233.83Z" fill="#1B3848"/>
<path d="M255.991 96.3639C243.913 106.361 236.607 98.6783 237.336 94.6423V66.1633C236.862 61.0867 232.523 63.1225 232.523 63.1225C232.523 63.1225 240.575 57.6283 248.021 61.7938V93.3122C247.94 99.5122 255.992 96.3653 255.992 96.3653L255.991 96.3639Z" fill="#1B3848"/>
<path d="M243.008 57.1185C246.881 57.1185 250.02 53.9286 250.02 49.9936C250.02 46.0586 246.881 42.8687 243.008 42.8687C239.134 42.8687 235.995 46.0586 235.995 49.9936C235.995 53.9286 239.134 57.1185 243.008 57.1185Z" fill="#1B3848"/>
</svg>
